<?xml version="1.0" encoding="iso-8859-1"?>
<!-- Generator: Adobe Illustrator 16.0.0, SVG Export Plug-In . SVG Version: 6.00 Build 0)  -->
<!DOCTYPE svg PUBLIC "-//W3C//DTD SVG 1.1//EN" "http://www.w3.org/Graphics/SVG/1.1/DTD/svg11.dtd">
<svg xmlns="http://www.w3.org/2000/svg" xmlns:xlink="http://www.w3.org/1999/xlink" version="1.1" id="Capa_1" x="0px" y="0px" width="32px" height="32px" viewBox="0 0 262.779 262.779" style="enable-background:new 0 0 262.779 262.779;" xml:space="preserve">
<g>
	<g>
		<path d="M198.514,229.127c0.886-3.34,1.729-6.841,2.532-10.476c0.145-0.684-0.078-1.408-0.591-1.88    c-0.522-0.486-1.242-0.657-1.926-0.44c-3.241,0.994-6.7,1.974-10.361,2.921c-0.72,0.176-1.274,0.761-1.435,1.481    c-0.803,3.583-1.651,7.021-2.537,10.304c-0.176,0.684,0.011,1.409,0.513,1.905c0.373,0.384,0.885,0.591,1.408,0.591    c0.166,0,0.331-0.021,0.497-0.062c3.733-0.963,7.265-1.957,10.568-2.962C197.83,230.323,198.338,229.789,198.514,229.127z" fill="#c0c0c0"/>
		<path d="M205.421,190.606c0.301-3.241,0.513-6.535,0.643-9.869c0.025-0.647-0.27-1.274-0.782-1.657    c-0.528-0.394-1.206-0.518-1.817-0.306c-3.133,1.025-6.509,2.076-10.118,3.086c-0.818,0.229-1.403,0.958-1.439,1.808    c-0.182,3.313-0.43,6.576-0.751,9.786c-0.067,0.652,0.197,1.295,0.699,1.72c0.362,0.306,0.813,0.466,1.274,0.466    c0.181,0,0.362-0.031,0.549-0.083c3.738-1.077,7.213-2.175,10.402-3.252C204.826,192.066,205.354,191.389,205.421,190.606z" fill="#c0c0c0"/>
		<path d="M202.838,209.62c0.59-3.309,1.139-6.71,1.595-10.19c0.088-0.673-0.177-1.346-0.699-1.781    c-0.523-0.435-1.217-0.579-1.88-0.362c-3.195,1.025-6.633,2.051-10.289,3.056c-0.761,0.207-1.33,0.849-1.439,1.636    c-0.481,3.438-1.02,6.799-1.631,10.066c-0.13,0.673,0.104,1.361,0.605,1.822c0.368,0.342,0.844,0.528,1.342,0.528    c0.176,0,0.352-0.021,0.533-0.077c3.754-1.041,7.27-2.098,10.521-3.153C202.195,210.936,202.713,210.346,202.838,209.62z" fill="#c0c0c0"/>
		<path d="M188.229,171.593c-0.005-0.989-0.036-1.957-0.057-2.932l-0.016-0.486c-0.025-1.077-0.906-1.937-1.983-1.937h-10.056    c-0.538,0-1.046,0.218-1.424,0.596c-0.368,0.383-0.569,0.901-0.56,1.435l0.011,0.486c0.025,0.927,0.047,1.864,0.057,2.807    c0.021,2.785-0.031,5.551-0.119,8.279c-0.025,0.611,0.238,1.196,0.71,1.59c0.357,0.301,0.808,0.467,1.273,0.467    c0.135,0,0.274-0.021,0.409-0.047c3.542-0.751,6.959-1.549,10.211-2.388c0.85-0.217,1.461-0.983,1.481-1.869    C188.22,175.605,188.245,173.612,188.229,171.593z" fill="#c0c0c0"/>
		<path d="M171.593,218.796c0.124,0,0.248-0.01,0.373-0.036c3.583-0.688,7.042-1.435,10.361-2.222    c0.756-0.176,1.33-0.776,1.485-1.532c0.679-3.345,1.311-6.772,1.859-10.305c0.099-0.663-0.129-1.315-0.611-1.771    c-0.486-0.445-1.165-0.611-1.807-0.466c-3.263,0.771-6.659,1.501-10.186,2.175c-0.818,0.155-1.455,0.812-1.584,1.636    c-0.555,3.47-1.166,6.866-1.844,10.139c-0.13,0.652,0.077,1.326,0.533,1.792C170.562,218.589,171.064,218.796,171.593,218.796z" fill="#c0c0c0"/>
		<path d="M168.361,200.01c0.45-3.329,0.823-6.731,1.129-10.185c0.057-0.606-0.176-1.218-0.627-1.632    c-0.45-0.414-1.087-0.605-1.672-0.497c-3.257,0.539-6.612,1.021-10.051,1.439c-0.927,0.114-1.657,0.859-1.734,1.797    c-0.301,3.412-0.684,6.742-1.129,10.02c-0.083,0.611,0.119,1.217,0.549,1.657c0.378,0.384,0.891,0.596,1.424,0.596    c0.077,0,0.155-0.005,0.238-0.016c3.511-0.43,6.918-0.942,10.247-1.497C167.58,201.563,168.242,200.87,168.361,200.01z" fill="#c0c0c0"/>
		<path d="M179.106,234.212c0.963-3.324,1.89-6.825,2.775-10.496c0.155-0.663-0.036-1.367-0.519-1.859    c-0.481-0.486-1.175-0.688-1.843-0.544c-3.272,0.715-6.654,1.394-10.159,2.01c-0.777,0.134-1.398,0.72-1.585,1.491    c-0.864,3.594-1.776,7.021-2.708,10.273c-0.187,0.657-0.026,1.361,0.435,1.874c0.373,0.425,0.917,0.663,1.471,0.663    c0.108,0,0.218-0.011,0.331-0.031c3.548-0.611,6.996-1.273,10.311-1.988C178.334,235.449,178.909,234.91,179.106,234.212z" fill="#c0c0c0"/>
		<path d="M192.957,176.931c0.353,0.265,0.777,0.399,1.207,0.399c0.187,0,0.373-0.021,0.554-0.073    c3.646-1.066,7.053-2.153,10.154-3.21c0.813-0.279,1.356-1.595,1.352-2.454c-0.005-0.989-0.031-1.963-0.057-2.941l-0.011-0.477    c-0.025-1.077-0.906-1.937-1.982-1.937h-10.062c-0.533,0-1.041,0.218-1.419,0.596c-0.373,0.383-0.574,0.901-0.564,1.435    l0.011,0.477c0.025,0.937,0.052,1.869,0.062,2.816c0.011,1.258-0.005,2.506-0.025,3.749    C192.165,175.952,192.461,176.548,192.957,176.931z" fill="#c0c0c0"/>
		<path d="M186.848,196.105c0.383-3.304,0.709-6.659,0.942-10.076c0.041-0.632-0.223-1.243-0.71-1.657    c-0.486-0.404-1.139-0.549-1.75-0.404c-3.226,0.787-6.607,1.543-10.113,2.253c-0.869,0.171-1.517,0.911-1.595,1.797    c-0.253,3.376-0.569,6.7-0.974,9.947c-0.077,0.637,0.156,1.269,0.627,1.698c0.368,0.337,0.85,0.528,1.347,0.528    c0.129,0,0.264-0.011,0.398-0.036c3.578-0.746,7.037-1.527,10.33-2.352C186.153,197.607,186.749,196.935,186.848,196.105z" fill="#c0c0c0"/>
		<path d="M129.406,99.477c0-0.533-0.212-1.038-0.598-1.413c-0.378-0.373-0.743-0.575-1.432-0.567    c-2.089,0.042-4.168,0.111-6.237,0.223c-0.805,0.042-1.51,0.572-1.771,1.341c-1.58,4.629-3.052,9.421-4.378,14.248    c-0.171,0.619-0.034,1.287,0.375,1.781c0.378,0.466,0.945,0.73,1.532,0.73c0.047,0,0.096,0,0.138-0.005    c3.378-0.232,6.884-0.386,10.416-0.45c1.085-0.021,1.95-0.906,1.95-1.988V99.477H129.406z" fill="#c0c0c0"/>
		<path d="M129.406,168.227c0-1.098-0.891-1.978-1.988-1.978h-18.786c-1.077,0-1.958,0.859-1.983,1.932l-0.016,0.471    c-0.021,0.984-0.046,1.957-0.052,2.951c-0.033,3.848,0.067,7.777,0.306,12.014c0.06,0.974,0.792,1.755,1.755,1.864    c6.304,0.725,12.609,1.149,18.74,1.263c0.01,0,0.026,0,0.036,0c0.525,0,1.018-0.196,1.391-0.569    c0.386-0.367,0.598-0.88,0.598-1.419V168.227z" fill="#c0c0c0"/>
		<path d="M129.406,143.159c0-0.533-0.212-1.046-0.598-1.424c-0.373-0.367-0.919-0.611-1.427-0.559    c-5.551,0.104-11.268,0.466-16.979,1.066c-0.912,0.093-1.639,0.797-1.761,1.698c-0.748,5.359-1.292,10.812-1.639,16.218    c-0.037,0.549,0.155,1.088,0.536,1.48c0.373,0.404,0.896,0.633,1.442,0.633h18.437c1.098,0,1.988-0.891,1.988-1.989V143.159z" fill="#c0c0c0"/>
		<path d="M110.312,115.104c1.253-4.787,2.651-9.554,4.158-14.157c0.207-0.637,0.085-1.331-0.334-1.856    c-0.419-0.525-1.087-0.784-1.74-0.743c-4.645,0.451-9.401,1.062-14.121,1.836c-0.735,0.111-1.336,0.632-1.569,1.336    c-1.569,4.756-3.011,9.66-4.3,14.561c-0.168,0.658,0,1.352,0.456,1.852c0.383,0.412,0.914,0.64,1.465,0.64    c0.111,0,0.223-0.005,0.339-0.026c4.634-0.8,9.326-1.462,13.95-1.973C109.427,116.487,110.107,115.894,110.312,115.104z" fill="#c0c0c0"/>
		<path d="M107.853,121.53c-0.43-0.481-1.038-0.725-1.717-0.637c-4.74,0.59-9.541,1.349-14.252,2.255    c-0.774,0.143-1.396,0.743-1.566,1.51c-1.085,4.841-2.02,9.662-2.773,14.343c-0.106,0.637,0.111,1.29,0.577,1.74    c0.373,0.352,0.87,0.56,1.385,0.56c0.122,0,0.249-0.021,0.375-0.042c4.583-0.891,9.297-1.662,14.015-2.283    c0.87-0.109,1.559-0.782,1.698-1.652c0.764-4.629,1.67-9.361,2.729-14.027C108.469,122.67,108.288,122.007,107.853,121.53z" fill="#c0c0c0"/>
		<path d="M153.008,221.571c0.078,0,0.141-0.005,0.208-0.01c3.474-0.373,6.871-0.818,10.18-1.326    c0.813-0.124,1.46-0.745,1.642-1.537c0.735-3.34,1.424-6.778,2.04-10.325c0.108-0.627-0.099-1.269-0.549-1.725    c-0.445-0.461-1.082-0.663-1.709-0.569c-3.262,0.502-6.612,0.947-10.04,1.325c-0.881,0.099-1.59,0.761-1.74,1.637    c-0.59,3.484-1.258,6.86-1.968,10.133c-0.129,0.616,0.036,1.269,0.467,1.74C151.91,221.333,152.454,221.571,153.008,221.571z" fill="#c0c0c0"/>
		<path d="M129.406,121.318c0-0.536-0.212-1.039-0.593-1.417c-0.378-0.37-0.748-0.551-1.432-0.567    c-4.125,0.08-8.415,0.303-12.741,0.668c-0.854,0.075-1.566,0.684-1.766,1.517c-1.116,4.686-2.112,9.471-2.943,14.208    c-0.111,0.611,0.075,1.237,0.492,1.693c0.383,0.409,0.914,0.638,1.465,0.638c0.057,0,0.117,0,0.179-0.006    c5.113-0.481,10.292-0.761,15.376-0.859c1.083-0.016,1.952-0.901,1.952-1.983v-13.893H129.406z" fill="#c0c0c0"/>
		<path d="M172.354,90.565c-0.181-0.472-0.533-0.85-0.983-1.072c-3.62-1.766-7.472-3.329-11.449-4.634    c-0.725-0.249-1.543-0.036-2.065,0.526c-0.528,0.557-0.684,1.377-0.404,2.094c0.834,2.084,1.709,4.363,2.625,6.913    c0.254,0.697,0.859,1.194,1.59,1.295c3.434,0.489,6.768,1.041,10.01,1.644c0.119,0.021,0.243,0.036,0.362,0.036    c0.574,0,1.134-0.253,1.512-0.704c0.466-0.542,0.596-1.294,0.353-1.962C173.369,93.232,172.856,91.86,172.354,90.565z" fill="#c0c0c0"/>
		<path d="M193.714,150.372c-0.638-0.181-1.315-0.041-1.817,0.373c-0.508,0.425-0.771,1.066-0.71,1.725    c0.254,2.594,0.456,5.245,0.616,7.933c0.062,1.046,0.932,1.87,1.983,1.87h10.035c0.549,0,1.066-0.229,1.444-0.622    c0.373-0.398,0.57-0.942,0.533-1.486c-0.093-1.631-0.223-3.241-0.352-4.836c-0.072-0.782-0.596-1.455-1.347-1.704    C200.911,152.548,197.441,151.45,193.714,150.372z" fill="#c0c0c0"/>
		<path d="M195.102,107.094c-3.324-0.981-6.851-1.941-10.574-2.869c-0.693-0.171-1.429,0.042-1.916,0.554    c-0.491,0.521-0.668,1.258-0.461,1.941c1.43,4.767,2.725,9.629,3.858,14.439c0.16,0.72,0.72,1.287,1.435,1.468    c3.666,0.933,7.13,1.898,10.382,2.89c0.187,0.06,0.383,0.085,0.574,0.085c0.497,0,0.984-0.187,1.356-0.536    c0.519-0.487,0.736-1.209,0.575-1.893c-1.154-4.984-2.465-9.947-3.884-14.74C196.24,107.788,195.743,107.283,195.102,107.094z" fill="#c0c0c0"/>
		<path d="M200.891,130.719c-3.263-1.048-6.783-2.104-10.543-3.133c-0.652-0.186-1.372-0.01-1.874,0.461    c-0.508,0.466-0.735,1.163-0.591,1.841c0.896,4.599,1.678,9.326,2.325,14.043c0.104,0.787,0.673,1.439,1.439,1.652    c3.655,0.999,7.089,2.035,10.278,3.055c0.197,0.067,0.398,0.099,0.606,0.099c0.455,0,0.905-0.155,1.263-0.456    c0.523-0.435,0.787-1.107,0.705-1.775c-0.591-4.718-1.362-9.518-2.269-14.264C202.097,131.527,201.579,130.941,200.891,130.719z" fill="#c0c0c0"/>
		<path d="M141.756,115.602c0.037,0.005,0.073,0.005,0.099,0.005c0.596,0,1.171-0.274,1.549-0.745    c0.394-0.5,0.533-1.158,0.362-1.771c-1.336-4.841-2.802-9.618-4.371-14.195c-0.273-0.774-0.994-1.315-1.817-1.341l-2.18-0.046    c-0.538,0.01-1.043,0.188-1.429,0.562c-0.389,0.37-0.602,0.886-0.602,1.421v13.896c0,1.083,0.865,1.962,1.942,1.988    C137.484,115.423,139.639,115.498,141.756,115.602z" fill="#c0c0c0"/>
		<path d="M84.797,168.661c-0.026,0.979-0.046,1.947-0.057,2.941c-0.021,2.807,0.031,5.598,0.132,8.357    c0.031,0.912,0.678,1.673,1.563,1.869c4.578,0.989,9.329,1.85,14.116,2.574c0.101,0.016,0.202,0.025,0.298,0.025    c0.492,0,0.963-0.181,1.331-0.513c0.445-0.394,0.684-0.979,0.652-1.573c-0.176-3.771-0.251-7.291-0.223-10.771    c0.011-0.952,0.031-1.879,0.057-2.816l0.01-0.477c0.011-0.538-0.188-1.051-0.567-1.434c-0.37-0.379-0.885-0.596-1.416-0.596    H86.791c-1.075,0-1.955,0.859-1.983,1.937L84.797,168.661z" fill="#c0c0c0"/>
		<path d="M133.373,135.231c0,1.077,0.859,1.963,1.941,1.983c3.915,0.088,7.757,0.274,11.407,0.544c0.052,0,0.099,0,0.146,0    c0.564,0,1.093-0.238,1.471-0.652c0.414-0.456,0.59-1.066,0.481-1.673c-0.813-4.66-1.812-9.427-2.952-14.183    c-0.201-0.85-0.937-1.46-1.802-1.522c-2.848-0.182-5.737-0.308-8.668-0.373c-0.544-0.031-1.049,0.191-1.437,0.564    c-0.381,0.37-0.599,0.886-0.599,1.419v13.893H133.373z" fill="#c0c0c0"/>
		<path d="M135.314,226.692c-1.082,0.021-1.941,0.906-1.941,1.983v10.057c0,0.533,0.212,1.04,0.601,1.418    c0.365,0.363,0.862,0.56,1.388,0.56c0.016,0,0.025,0,0.044,0c1.483-0.031,2.959-0.078,4.435-0.145    c0.834-0.042,1.559-0.591,1.808-1.398c0.994-3.205,1.983-6.639,2.931-10.253c0.161-0.61,0.021-1.263-0.378-1.761    c-0.403-0.491-1.015-0.787-1.646-0.725C140.167,226.553,137.754,226.636,135.314,226.692z" fill="#c0c0c0"/>
		<path d="M135.007,253.511c0.121,0.021,0.232,0.03,0.35,0.03c0.817,0,1.568-0.507,1.864-1.294c0.569-1.564,1.164-3.211,1.771-4.961    c0.212-0.611,0.108-1.295-0.279-1.822c-0.378-0.528-1.016-0.809-1.652-0.809l-1.755,0.031c-1.072,0.031-1.932,0.912-1.932,1.979    v4.888C133.373,252.517,134.066,253.334,135.007,253.511z" fill="#c0c0c0"/>
		<path d="M146.582,220.754c0.762-3.294,1.461-6.731,2.103-10.258c0.108-0.606-0.067-1.228-0.481-1.684    c-0.404-0.461-1-0.698-1.621-0.652c-3.588,0.27-7.379,0.445-11.272,0.528c-1.082,0.031-1.942,0.911-1.942,1.988v10.057    c0,0.538,0.218,1.045,0.602,1.418c0.364,0.363,0.861,0.564,1.388,0.564c0.015,0,0.03,0,0.041,0    c3.18-0.067,6.302-0.217,9.383-0.419C145.655,222.234,146.386,221.608,146.582,220.754z" fill="#c0c0c0"/>
		<path d="M150.031,202.346c0.486-3.335,0.911-6.737,1.242-10.228c0.057-0.58-0.15-1.159-0.564-1.584    c-0.414-0.414-0.979-0.632-1.579-0.575c-4.583,0.389-9.228,0.638-13.81,0.735c-1.077,0.026-1.942,0.906-1.942,1.983v10.056    c0,0.539,0.218,1.046,0.601,1.424c0.365,0.357,0.862,0.564,1.388,0.564c0.016,0,0.031,0,0.044,0    c4.285-0.104,8.599-0.326,12.829-0.684C149.146,203.956,149.891,203.257,150.031,202.346z" fill="#c0c0c0"/>
		<path d="M162.702,121.732c-3.304-0.497-6.701-0.932-10.176-1.3c-0.632-0.062-1.263,0.181-1.688,0.658    c-0.43,0.481-0.591,1.134-0.45,1.76c1.046,4.599,1.973,9.315,2.76,14.018c0.135,0.88,0.849,1.543,1.734,1.651    c3.423,0.378,6.778,0.829,10.046,1.336c0.108,0.016,0.207,0.026,0.311,0.026c0.528,0,1.03-0.213,1.413-0.591    c0.451-0.455,0.652-1.087,0.544-1.719c-0.803-4.831-1.766-9.647-2.838-14.312C164.162,122.452,163.51,121.849,162.702,121.732z" fill="#c0c0c0"/>
		<path d="M175.787,162.272h10.035c0.549,0,1.071-0.218,1.444-0.622c0.378-0.398,0.569-0.942,0.544-1.481    c-0.228-3.516-0.533-6.959-0.906-10.335c-0.099-0.818-0.688-1.502-1.491-1.698c-3.293-0.823-6.747-1.621-10.325-2.352    c-0.627-0.145-1.269,0.053-1.745,0.477c-0.466,0.43-0.704,1.062-0.632,1.688c0.487,4.091,0.85,8.28,1.098,12.469    C173.871,161.454,174.741,162.272,175.787,162.272z" fill="#c0c0c0"/>
		<path d="M156.239,99.006c-3.257-0.391-6.586-0.72-9.973-0.981c-0.684-0.047-1.305,0.235-1.709,0.759    c-0.409,0.525-0.528,1.214-0.321,1.851c1.502,4.575,2.91,9.321,4.163,14.095c0.213,0.81,0.906,1.403,1.74,1.473    c3.392,0.303,6.69,0.668,9.927,1.103c0.093,0.015,0.176,0.021,0.264,0.021c0.564,0,1.113-0.243,1.491-0.673    c0.44-0.502,0.601-1.188,0.425-1.828c-1.305-4.865-2.78-9.737-4.37-14.488C157.638,99.617,156.995,99.102,156.239,99.006z" fill="#c0c0c0"/>
		<path d="M133.373,160.283c0,1.099,0.891,1.989,1.988,1.989h14.468c0.549,0,1.071-0.229,1.444-0.633    c0.373-0.393,0.57-0.932,0.539-1.476c-0.348-5.53-0.917-11.117-1.684-16.585c-0.124-0.917-0.875-1.626-1.797-1.699    c-4.276-0.361-8.626-0.59-12.927-0.693c-0.409,0-1.046,0.191-1.432,0.569c-0.384,0.373-0.601,0.881-0.601,1.419V160.283z" fill="#c0c0c0"/>
		<path d="M133.373,184.734c0,0.539,0.217,1.052,0.601,1.419c0.365,0.367,0.862,0.569,1.388,0.569c0.016,0,0.031,0,0.049,0    c4.891-0.113,9.831-0.394,14.693-0.849c0.974-0.088,1.74-0.881,1.797-1.864c0.254-4.36,0.362-8.42,0.331-12.417    c-0.011-0.989-0.031-1.963-0.062-2.941l-0.011-0.477c-0.026-1.077-0.906-1.937-1.983-1.937h-14.819    c-1.099,0-1.989,0.891-1.989,1.988v16.508H133.373z" fill="#c0c0c0"/>
		<path d="M160.139,237.53c0.983-3.272,1.963-6.752,2.905-10.413c0.155-0.637,0-1.32-0.446-1.812    c-0.435-0.492-1.087-0.73-1.75-0.647c-3.23,0.445-6.545,0.828-9.932,1.139c-0.839,0.083-1.537,0.684-1.744,1.497    c-0.896,3.562-1.828,6.964-2.781,10.18c-0.187,0.627-0.047,1.305,0.367,1.812c0.379,0.466,0.943,0.73,1.538,0.73    c0.052,0,0.109,0,0.166,0c3.418-0.29,6.763-0.663,10.035-1.088C159.273,238.83,159.911,238.276,160.139,237.53z" fill="#c0c0c0"/>
		<path d="M154.898,143.289c-0.436,0.435-0.643,1.046-0.564,1.657c0.673,5.188,1.17,10.393,1.471,15.456    c0.062,1.046,0.932,1.87,1.983,1.87h10.035c0.549,0,1.077-0.229,1.444-0.633c0.373-0.393,0.564-0.932,0.539-1.476    c-0.301-4.717-0.767-9.507-1.378-14.245c-0.114-0.859-0.776-1.553-1.642-1.693c-3.329-0.564-6.742-1.071-10.247-1.501    C155.96,142.637,155.333,142.854,154.898,143.289z" fill="#c0c0c0"/>
		<path d="M175.43,102.172c-3.319-0.688-6.742-1.336-10.278-1.903c-0.704-0.129-1.372,0.137-1.823,0.663    c-0.45,0.523-0.596,1.24-0.389,1.898c1.477,4.634,2.849,9.448,4.091,14.315c0.182,0.759,0.809,1.336,1.585,1.471    c3.5,0.598,6.897,1.261,10.164,1.973c0.135,0.031,0.275,0.047,0.415,0.047c0.533,0,1.046-0.218,1.429-0.604    c0.477-0.5,0.668-1.199,0.497-1.867c-1.242-4.921-2.656-9.849-4.194-14.657C176.693,102.83,176.129,102.314,175.43,102.172z" fill="#c0c0c0"/>
		<path d="M171.298,123.19c-0.658-0.122-1.321,0.09-1.792,0.562c-0.461,0.479-0.658,1.152-0.523,1.805    c1,4.621,1.875,9.364,2.595,14.071c0.124,0.834,0.761,1.491,1.585,1.652c3.525,0.684,6.928,1.418,10.18,2.185    c0.155,0.031,0.315,0.052,0.466,0.052c0.492,0,0.974-0.176,1.347-0.523c0.481-0.445,0.715-1.103,0.611-1.755    c-0.726-4.815-1.605-9.649-2.605-14.346c-0.165-0.754-0.745-1.344-1.491-1.512C178.35,124.596,174.881,123.863,171.298,123.19z" fill="#c0c0c0"/>
		<path d="M170.034,181.556c0.155-3.387,0.223-6.742,0.191-9.963c-0.005-0.989-0.031-1.957-0.052-2.932l-0.011-0.486    c-0.03-1.077-0.911-1.937-1.988-1.937h-10.056c-0.539,0-1.041,0.218-1.419,0.596c-0.378,0.383-0.58,0.901-0.569,1.435l0.016,0.486    c0.021,0.927,0.052,1.864,0.057,2.807c0.026,3.599-0.057,7.301-0.259,11.346c-0.026,0.585,0.202,1.154,0.637,1.553    c0.368,0.337,0.85,0.533,1.347,0.533c0.088,0,0.171-0.01,0.259-0.021c3.49-0.456,6.907-0.974,10.216-1.559    C169.314,183.264,169.992,182.487,170.034,181.556z" fill="#c0c0c0"/>
		<path d="M65.307,162.272h13.877c1.049,0,1.914-0.813,1.976-1.87c0.218-3.608,0.526-7.161,0.904-10.615    c0.067-0.642-0.181-1.278-0.663-1.703c-0.489-0.425-1.152-0.591-1.781-0.435c-4.8,1.17-9.626,2.495-14.354,3.945    c-0.764,0.232-1.315,0.911-1.396,1.709c-0.217,2.258-0.399,4.546-0.541,6.855c-0.037,0.549,0.158,1.088,0.536,1.48    C64.234,162.044,64.76,162.272,65.307,162.272z" fill="#c0c0c0"/>
		<path d="M74.57,242.59c0.122,0.367,0.35,0.709,0.668,0.947c5.377,4.205,11.203,7.799,17.323,10.678    c0.27,0.124,0.562,0.187,0.841,0.187c0.49,0,0.966-0.177,1.336-0.519c0.596-0.538,0.803-1.382,0.531-2.133    c-1.048-2.931-2.156-6.142-3.27-9.642c-0.218-0.694-0.803-1.212-1.512-1.347c-4.751-0.911-9.583-1.988-14.343-3.205    c-0.699-0.191-1.437,0.036-1.924,0.56c-0.495,0.522-0.668,1.269-0.456,1.952L74.57,242.59z" fill="#c0c0c0"/>
		<path d="M160.186,258.104c0.212,0,0.43-0.031,0.637-0.104c3.925-1.336,7.788-2.946,11.459-4.795    c0.45-0.228,0.798-0.616,0.974-1.088c1.015-2.76,2.087-5.778,3.174-9.124c0.218-0.668,0.067-1.402-0.398-1.931    c-0.466-0.523-1.191-0.767-1.869-0.632c-3.241,0.632-6.603,1.222-10.056,1.745c-0.746,0.108-1.362,0.632-1.59,1.352    c-1.279,3.961-2.651,7.85-4.189,11.889c-0.274,0.715-0.108,1.532,0.425,2.081C159.134,257.892,159.646,258.104,160.186,258.104z" fill="#c0c0c0"/>
		<path d="M127.418,262.779c0.515,0,1.007-0.197,1.385-0.56c0.386-0.373,0.603-0.891,0.603-1.429v-14.095    c0-1.088-0.864-1.963-1.944-1.988c-1.921-0.042-3.834-0.094-5.722-0.177c-0.668-0.072-1.289,0.27-1.68,0.787    c-0.394,0.533-0.5,1.217-0.288,1.844c1.735,5.022,3.578,9.869,5.484,14.4c0.305,0.725,1.18,1.206,1.959,1.217l0.202-1.988    l-0.067,1.988C127.372,262.779,127.397,262.779,127.418,262.779z" fill="#c0c0c0"/>
		<path d="M140.503,262.422c0.067,0,0.13-0.005,0.197-0.016c3.35-0.342,6.799-0.901,10.258-1.657c0.642-0.135,1.165-0.58,1.413-1.19    c1.803-4.407,3.506-8.984,5.075-13.624c0.217-0.642,0.098-1.352-0.332-1.879c-0.43-0.528-1.077-0.809-1.771-0.726    c-3.189,0.357-6.441,0.663-9.756,0.891c-0.803,0.052-1.491,0.585-1.745,1.347c-1.6,4.795-3.34,9.554-5.183,14.126    c-0.265,0.642-0.166,1.377,0.253,1.931C139.291,262.127,139.877,262.422,140.503,262.422z" fill="#c0c0c0"/>
		<path d="M101.623,257.146c0.218,0.549,0.668,0.974,1.225,1.154c4.904,1.621,9.937,2.817,14.952,3.568    c0.106,0.021,0.197,0.021,0.298,0.021c0.598,0,1.183-0.274,1.559-0.751c0.44-0.554,0.546-1.311,0.287-1.973    c-1.789-4.443-3.485-9.113-5.064-13.878c-0.251-0.75-0.924-1.273-1.709-1.351c-4.575-0.399-9.235-0.964-13.838-1.663    c-0.679-0.104-1.372,0.15-1.817,0.684c-0.448,0.528-0.58,1.253-0.363,1.906C98.547,249.042,100.046,253.174,101.623,257.146z" fill="#c0c0c0"/>
		<path d="M59.802,228.205c0.243,0.306,0.572,0.533,0.945,0.657l2.713,0.87c0.197,0.062,0.399,0.093,0.601,0.093    c0.497,0,0.987-0.186,1.357-0.538c0.525-0.497,0.743-1.232,0.572-1.932c-0.831-3.282-1.629-6.7-2.359-10.258    c-0.145-0.704-0.663-1.269-1.346-1.486c-3.035-0.958-5.859-1.91-8.479-2.843c-0.784-0.259-1.644-0.036-2.175,0.591    c-0.536,0.632-0.626,1.522-0.228,2.242C53.806,219.967,56.63,224.202,59.802,228.205z" fill="#c0c0c0"/>
		<path d="M40.423,164.126l-0.122,1.595c-0.054,0.849,0.492,1.657,1.266,1.988c0,0,0.075,0.026,0.075,0.031    c0.243,0.104,0.502,0.149,0.764,0.149c0.386,0,0.774-0.108,1.103-0.326c0.551-0.372,0.88-0.994,0.88-1.656v-1.626    c0-1.067-0.839-1.937-1.9-1.989C41.425,162.262,40.506,163.064,40.423,164.126z" fill="#c0c0c0"/>
		<path d="M41.006,184.413c0.101,0.694,0.551,1.284,1.198,1.554c4.666,1.968,9.639,3.863,14.799,5.64    c0.212,0.077,0.43,0.113,0.647,0.113c0.435,0,0.862-0.145,1.214-0.419c0.534-0.415,0.816-1.062,0.764-1.729    c-0.262-3.159-0.453-6.375-0.564-9.632c-0.031-0.818-0.567-1.543-1.352-1.807c-5.085-1.704-10.064-3.573-14.804-5.525    c-0.609-0.254-1.331-0.176-1.888,0.202c-0.551,0.383-0.875,1.02-0.854,1.693C40.268,177.827,40.555,181.167,41.006,184.413z" fill="#c0c0c0"/>
		<path d="M87.143,162.272h13.875c1.051,0,1.921-0.813,1.983-1.865c0.298-4.888,0.769-9.905,1.411-14.923    c0.081-0.621-0.137-1.232-0.577-1.667c-0.44-0.43-1.041-0.632-1.67-0.549c-4.694,0.673-9.486,1.512-14.252,2.511    c-0.833,0.171-1.465,0.86-1.572,1.704c-0.507,4.132-0.901,8.398-1.175,12.681c-0.039,0.555,0.153,1.088,0.536,1.486    C86.071,162.044,86.602,162.272,87.143,162.272z" fill="#c0c0c0"/>
		<path d="M182.084,247.09c0.398,0,0.781-0.114,1.128-0.353c2.858-1.978,5.649-4.158,8.321-6.493    c0.689-0.611,0.875-1.616,0.44-2.434c-0.435-0.808-1.352-1.212-2.263-0.984c-2.134,0.569-4.318,1.129-6.597,1.657    c-0.684,0.16-1.232,0.684-1.445,1.356c-0.491,1.61-0.983,3.138-1.471,4.64c-0.269,0.803,0.011,1.698,0.694,2.206    C181.25,246.955,181.664,247.09,182.084,247.09z" fill="#c0c0c0"/>
		<path d="M214.923,166.249h-2.807c-0.533,0-1.046,0.207-1.419,0.59c-0.367,0.378-0.569,0.896-0.564,1.43l0.021,1.098    c0.016,0.642,0.336,1.237,0.88,1.605c0.326,0.223,0.72,0.331,1.108,0.331c0.238,0,0.477-0.042,0.709-0.13l2.812-1.098    c0.885-0.352,1.393-1.284,1.211-2.216C216.688,166.911,215.876,166.249,214.923,166.249z" fill="#c0c0c0"/>
		<path d="M218.408,164.431v1.523c0,0.678,0.398,1.278,0.968,1.641c0.316,0.207,0.694,0.306,1.067,0.306    c0.311,0,0.605-0.067,0.885-0.191c0.751-0.331,1.212-1.108,1.16-1.927l-0.114-1.501c-0.088-1.057-0.792-1.812-2.056-1.833    C219.247,162.489,218.408,163.37,218.408,164.431z" fill="#c0c0c0"/>
		<path d="M214.67,135.625c-1.569-0.61-3.222-1.253-5.064-1.915c-0.663-0.249-1.403-0.114-1.942,0.341    c-0.549,0.451-0.802,1.155-0.693,1.854c0.787,4.572,1.439,9.248,1.937,13.908c0.088,0.756,0.585,1.398,1.295,1.656    c2.879,1.047,5.452,2.046,7.71,2.957c0.243,0.109,0.497,0.15,0.751,0.15c0.461,0,0.911-0.16,1.278-0.466    c0.56-0.477,0.818-1.222,0.658-1.937c-1.145-5.292-2.766-10.496-4.821-15.452C215.575,136.216,215.177,135.822,214.67,135.625z" fill="#c0c0c0"/>
		<path d="M208.14,122.162c-0.533-0.813-1.554-1.118-2.438-0.753c-0.886,0.371-1.383,1.331-1.171,2.271l0.244,1.069    c0.165,0.697,0.331,1.396,0.486,2.115c0.135,0.691,0.632,1.248,1.295,1.471l1.559,0.551c0.217,0.081,0.445,0.117,0.662,0.117    c0.575,0,1.14-0.253,1.518-0.717c0.538-0.64,0.616-1.543,0.202-2.263C209.745,124.718,208.963,123.428,208.14,122.162z" fill="#c0c0c0"/>
		<path d="M216.301,205.137c1.444-3.667,2.656-7.39,3.588-11.04c0.187-0.725-0.052-1.491-0.61-1.988    c-0.56-0.487-1.367-0.632-2.046-0.342c-2.107,0.839-4.448,1.745-7.058,2.692c-0.71,0.259-1.217,0.891-1.3,1.646    c-0.378,3.366-0.834,6.664-1.346,9.891c-0.104,0.693,0.16,1.397,0.704,1.843c0.362,0.296,0.808,0.451,1.258,0.451    c0.233,0,0.461-0.036,0.684-0.119c1.828-0.668,3.464-1.305,5.013-1.916C215.689,206.048,216.094,205.644,216.301,205.137z" fill="#c0c0c0"/>
		<path d="M57.014,166.249h-8.93c-0.955,0-1.776,0.673-1.947,1.615c-0.179,0.938,0.334,1.869,1.227,2.217    c2.597,1.015,5.592,2.133,8.938,3.298c0.212,0.072,0.43,0.108,0.647,0.108c0.404,0,0.802-0.124,1.142-0.352    c0.523-0.373,0.836-0.974,0.847-1.605c0.01-1.077,0.039-2.144,0.064-3.241c0.016-0.544-0.187-1.057-0.557-1.439    C58.062,166.466,57.55,166.249,57.014,166.249z" fill="#c0c0c0"/>
		<path d="M218.361,160.667c0.176-0.928-0.331-1.859-1.206-2.217c-1.445-0.59-3.056-1.222-4.79-1.874    c-0.632-0.238-1.341-0.146-1.885,0.264c-0.544,0.404-0.839,1.052-0.793,1.729l0.119,1.849c0.073,1.046,0.933,1.864,1.979,1.864    h4.629C217.362,162.272,218.18,161.599,218.361,160.667z" fill="#c0c0c0"/>
		<path d="M206.348,220.795c0.244,0.108,0.492,0.146,0.746,0.146c0.663,0,1.305-0.332,1.678-0.922    c0.886-1.408,1.729-2.838,2.537-4.288c0.398-0.729,0.311-1.626-0.223-2.257c-0.538-0.632-1.398-0.85-2.185-0.58l-1.673,0.601    c-0.668,0.228-1.165,0.797-1.295,1.491c-0.14,0.693-0.295,1.356-0.439,2.024l-0.342,1.532    C204.95,219.49,205.457,220.433,206.348,220.795z" fill="#c0c0c0"/>
		<path d="M221.764,184.48c0.455-3.215,0.745-6.55,0.849-9.905c0.021-0.674-0.3-1.315-0.859-1.698    c-0.549-0.373-1.269-0.456-1.885-0.187c-2.397,0.994-5.193,2.112-8.435,3.313c-0.772,0.285-1.279,1-1.301,1.817    c-0.082,3.216-0.228,6.396-0.46,9.528c-0.047,0.673,0.253,1.331,0.792,1.739c0.347,0.254,0.767,0.389,1.191,0.389    c0.237,0,0.476-0.041,0.704-0.129c3.262-1.228,6.012-2.367,8.228-3.319C221.22,185.755,221.665,185.17,221.764,184.48z" fill="#c0c0c0"/>
		<path d="M47.559,206.141c3.977,1.549,7.837,2.941,11.813,4.277c0.208,0.062,0.42,0.104,0.627,0.104    c0.466,0,0.927-0.165,1.294-0.477c0.528-0.455,0.779-1.159,0.668-1.843c-0.551-3.231-1.031-6.551-1.447-9.942    c-0.096-0.761-0.616-1.403-1.349-1.642c-4.605-1.517-9.193-3.185-13.636-4.955c-0.689-0.27-1.479-0.13-2.048,0.352    c-0.551,0.497-0.79,1.259-0.608,1.979c0.917,3.635,2.11,7.353,3.562,11.024C46.637,205.53,47.051,205.938,47.559,206.141z" fill="#c0c0c0"/>
		<path d="M72.501,232.399c4.841,1.336,9.761,2.532,14.607,3.557c0.14,0.026,0.282,0.042,0.415,0.042    c0.541,0,1.066-0.223,1.442-0.621c0.476-0.508,0.652-1.223,0.466-1.891c-0.906-3.267-1.792-6.716-2.628-10.294    c-0.176-0.751-0.764-1.325-1.518-1.486c-4.815-1.03-9.634-2.216-14.328-3.511c-0.673-0.207-1.401-0.021-1.898,0.472    c-0.51,0.481-0.722,1.19-0.562,1.874c0.82,3.656,1.706,7.151,2.62,10.486C71.303,231.68,71.828,232.213,72.501,232.399z" fill="#c0c0c0"/>
		<path d="M87.969,200.14c4.787,0.999,9.582,1.838,14.242,2.506c0.096,0.011,0.191,0.026,0.287,0.026    c0.518,0,1.018-0.207,1.393-0.575c0.445-0.44,0.658-1.057,0.572-1.672c-0.435-3.263-0.805-6.607-1.098-10.01    c-0.078-0.927-0.785-1.662-1.696-1.792c-4.554-0.642-9.248-1.455-13.935-2.407c-0.616-0.13-1.245,0.046-1.706,0.461    c-0.474,0.408-0.717,1.02-0.663,1.641c0.269,3.438,0.619,6.814,1.038,10.129C86.511,199.29,87.143,199.969,87.969,200.14z" fill="#c0c0c0"/>
		<path d="M59.605,156.317c0.054-0.663-0.238-1.315-0.769-1.72c-0.533-0.409-1.235-0.538-1.859-0.311    c-3.878,1.336-7.638,2.739-11.18,4.153c-0.88,0.352-1.388,1.283-1.214,2.221c0.181,0.938,1.002,1.611,1.952,1.611h10.807    c1.048,0,1.913-0.818,1.978-1.875C59.411,159.03,59.499,157.674,59.605,156.317z" fill="#c0c0c0"/>
		<path d="M91.171,218.786c4.71,0.911,9.507,1.678,14.269,2.299c0.085,0.016,0.171,0.016,0.256,0.016    c0.557,0,1.08-0.228,1.463-0.637c0.435-0.472,0.614-1.135,0.481-1.761c-0.699-3.272-1.352-6.648-1.944-10.129    c-0.145-0.859-0.833-1.522-1.698-1.636c-4.645-0.605-9.36-1.367-14.004-2.269c-0.629-0.113-1.292,0.073-1.758,0.528    c-0.469,0.451-0.687,1.108-0.575,1.74c0.591,3.542,1.243,6.98,1.952,10.314C89.771,218.03,90.387,218.631,91.171,218.786z" fill="#c0c0c0"/>
		<path d="M65.301,194.314c4.746,1.444,9.577,2.77,14.354,3.945c0.152,0.031,0.313,0.052,0.471,0.052    c0.477,0,0.945-0.166,1.311-0.497c0.486-0.425,0.738-1.066,0.663-1.709c-0.365-3.231-0.673-6.534-0.896-9.874    c-0.06-0.87-0.673-1.601-1.517-1.803c-4.676-1.113-9.37-2.377-13.976-3.759c-0.616-0.191-1.29-0.067-1.794,0.331    c-0.507,0.398-0.79,1.015-0.756,1.662c0.163,3.361,0.417,6.68,0.746,9.942C63.986,193.402,64.532,194.076,65.301,194.314z" fill="#c0c0c0"/>
		<path d="M67.29,130.253c-0.95,4.725-1.75,9.535-2.397,14.31c-0.096,0.663,0.161,1.336,0.668,1.771    c0.363,0.316,0.829,0.477,1.294,0.477c0.187,0,0.371-0.021,0.557-0.082c4.71-1.378,9.486-2.621,14.201-3.708    c0.795-0.176,1.398-0.839,1.52-1.646c0.668-4.63,1.507-9.375,2.483-14.084c0.137-0.663-0.07-1.352-0.552-1.823    c-0.479-0.466-1.173-0.668-1.83-0.516c-4.818,1.093-9.714,2.372-14.556,3.786C67.973,128.943,67.432,129.533,67.29,130.253z" fill="#c0c0c0"/>
		<path d="M110.195,239.633c0.075,0.011,0.14,0.011,0.213,0.011c0.585,0,1.146-0.259,1.522-0.715    c0.425-0.508,0.562-1.196,0.375-1.833c-0.942-3.221-1.872-6.628-2.763-10.206c-0.199-0.803-0.88-1.403-1.701-1.491    c-4.609-0.523-9.315-1.206-13.979-2.024c-0.688-0.114-1.341,0.113-1.802,0.601c-0.456,0.491-0.632,1.186-0.471,1.838    c0.917,3.661,1.877,7.161,2.848,10.455c0.212,0.725,0.821,1.258,1.569,1.388C100.709,238.474,105.483,239.136,110.195,239.633z" fill="#c0c0c0"/>
		<path d="M73.265,106.579c-1.473,4.841-2.822,9.799-4.008,14.719c-0.161,0.684,0.046,1.406,0.551,1.887    c0.376,0.36,0.875,0.557,1.383,0.557c0.176,0,0.35-0.025,0.525-0.072c4.798-1.315,9.613-2.483,14.328-3.469    c0.746-0.158,1.331-0.73,1.515-1.468c1.183-4.815,2.524-9.649,3.99-14.369c0.205-0.673,0.046-1.406-0.425-1.921    c-0.468-0.523-1.204-0.759-1.867-0.614c-4.873,0.987-9.784,2.131-14.597,3.41C73.998,105.416,73.467,105.921,73.265,106.579z" fill="#c0c0c0"/>
		<path d="M62.963,168.661c-0.028,0.979-0.049,1.947-0.06,2.932l0.016,2.537c0,0.865,0.575,1.626,1.396,1.885    c4.634,1.439,9.37,2.766,14.061,3.945c0.161,0.031,0.318,0.058,0.484,0.058c0.445,0,0.88-0.15,1.235-0.44    c0.487-0.389,0.758-0.974,0.748-1.595c-0.054-2.123-0.085-4.257-0.07-6.411c0.005-0.952,0.031-1.879,0.052-2.816l0.013-0.477    c0.015-0.538-0.187-1.051-0.564-1.434c-0.371-0.379-0.885-0.596-1.419-0.596H64.957c-1.077,0-1.958,0.859-1.983,1.937    L62.963,168.661z" fill="#c0c0c0"/>
		<path d="M68.038,213.132c4.823,1.429,9.714,2.708,14.538,3.826c0.145,0.036,0.297,0.052,0.445,0.052    c0.51,0,1.002-0.202,1.38-0.554c0.487-0.477,0.699-1.15,0.567-1.812c-0.642-3.272-1.235-6.639-1.766-10.098    c-0.117-0.808-0.723-1.455-1.517-1.636c-4.736-1.088-9.512-2.336-14.193-3.708c-0.658-0.196-1.354-0.041-1.862,0.404    c-0.515,0.445-0.753,1.107-0.663,1.781c0.492,3.49,1.048,6.902,1.68,10.216C66.78,212.329,67.321,212.924,68.038,213.132z" fill="#c0c0c0"/>
		<path d="M93.437,88.551c-4.445,2.03-8.691,4.401-12.643,7.035c-0.794,0.531-1.098,1.559-0.72,2.434    c0.319,0.743,1.039,1.204,1.823,1.204c0.137,0,0.297-0.016,0.44-0.052c3.41-0.774,6.91-1.517,10.558-2.175    c0.704-0.122,1.282-0.622,1.52-1.294c0.58-1.637,1.147-3.18,1.699-4.645c0.28-0.756,0.085-1.605-0.51-2.151    C95.026,88.354,94.162,88.209,93.437,88.551z" fill="#c0c0c0"/>
		<path d="M64.214,109.766c-4.56,4.95-8.601,10.47-12.011,16.389c-0.406,0.715-0.334,1.618,0.191,2.253    c0.389,0.463,0.956,0.722,1.528,0.722c0.223,0,0.445-0.037,0.658-0.111c2.597-0.906,5.393-1.846,8.389-2.778    c0.684-0.213,1.198-0.774,1.346-1.463c0.945-4.309,2.014-8.596,3.272-13.124c0.249-0.886-0.145-1.82-0.95-2.271    C65.848,108.927,64.835,109.087,64.214,109.766z" fill="#c0c0c0"/>
		<path d="M129.406,192.693c0-1.082-0.87-1.968-1.949-1.988c-5.849-0.108-11.832-0.481-17.774-1.103    c-0.585-0.053-1.188,0.145-1.608,0.559c-0.43,0.425-0.637,1.005-0.577,1.605c0.334,3.469,0.753,6.876,1.225,10.211    c0.126,0.896,0.854,1.595,1.76,1.688c5.707,0.59,11.395,0.958,16.899,1.066c0.01,0,0.026,0,0.036,0    c0.525,0,1.018-0.202,1.391-0.569c0.386-0.373,0.598-0.881,0.598-1.419V192.693z" fill="#c0c0c0"/>
		<path d="M46.96,136.827c-2.053,4.965-3.659,10.148-4.8,15.425c-0.152,0.72,0.101,1.46,0.663,1.937    c0.362,0.306,0.818,0.467,1.279,0.467c0.249,0,0.5-0.047,0.743-0.141c4.549-1.827,9.346-3.578,14.268-5.193    c0.725-0.243,1.251-0.885,1.341-1.651c0.551-4.64,1.256-9.353,2.089-13.986c0.127-0.688-0.122-1.393-0.652-1.856    c-0.531-0.461-1.256-0.588-1.924-0.381c-4.021,1.331-7.907,2.729-11.889,4.282C47.569,135.926,47.167,136.319,46.96,136.827z" fill="#c0c0c0"/>
		<path d="M129.406,210.688c0-1.077-0.87-1.958-1.949-1.979c-5.119-0.099-10.25-0.383-15.257-0.849    c-0.604-0.031-1.23,0.176-1.647,0.632c-0.419,0.46-0.601,1.087-0.494,1.698c0.642,3.531,1.341,6.965,2.094,10.268    c0.192,0.834,0.901,1.455,1.761,1.538c4.518,0.404,9.046,0.647,13.468,0.735c0.01,0,0.026,0,0.036,0    c0.525,0,1.018-0.202,1.391-0.569c0.386-0.373,0.598-0.88,0.598-1.419V210.688z" fill="#c0c0c0"/>
		<path d="M129.406,228.687c0-1.082-0.87-1.963-1.949-1.983c-3.819-0.072-7.594-0.243-11.231-0.513    c-0.632-0.041-1.256,0.218-1.675,0.715c-0.409,0.492-0.551,1.149-0.394,1.771c0.96,3.636,1.947,7.068,2.944,10.294    c0.238,0.787,0.948,1.352,1.771,1.398c2.804,0.176,5.647,0.311,8.51,0.353c0.01,0,0.026,0,0.036,0    c0.525,0,1.018-0.197,1.396-0.564c0.381-0.368,0.593-0.881,0.593-1.414V228.687z" fill="#c0c0c0"/>
		<path d="M129.406,84.753h4.301c-0.191,0.271-0.329,0.577-0.329,0.93v6.42c0,0.885,0.712,1.6,1.598,1.621    c0.728,0.011,1.447,0.039,2.162,0.06l0.455,0.016c0.026,0,0.042,0,0.058,0c0.527,0,1.01-0.254,1.32-0.678    c0.315-0.445,0.383-1.012,0.196-1.517c-1.015-2.628-1.921-4.818-2.682-6.563c-0.052-0.122-0.177-0.176-0.259-0.282h2.128    c0.942,2.261,1.962,4.795,3.07,7.791c0.27,0.74,0.958,1.245,1.745,1.294c3.277,0.194,6.504,0.456,9.657,0.771    c0.072,0.005,0.135,0.013,0.202,0.013c0.61,0,1.196-0.282,1.574-0.774c0.419-0.541,0.533-1.264,0.284-1.911    c-1.056-2.799-2.014-5.137-2.874-7.179h0.094c0,0-3.625-18.341-16.078-20.466V2.651c0-1.463-1.188-2.651-2.651-2.651    s-2.651,1.188-2.651,2.651v61.697c-9.724,1.805-14.31,12.389-15.998,17.559c-3.705,0.679-7.379,1.504-10.916,2.628    c-0.559,0.171-1.01,0.591-1.232,1.132c-0.862,2.081-1.817,4.479-2.845,7.231c-0.246,0.658-0.125,1.396,0.316,1.939    c0.378,0.474,0.95,0.743,1.543,0.743c0.096,0,0.187-0.01,0.282-0.021c4.544-0.642,9.163-1.139,13.732-1.483    c0.774-0.065,1.437-0.564,1.714-1.295c1.129-3.086,2.18-5.706,3.143-8.023h4.345c-0.759,1.789-1.572,3.77-2.483,6.146    c-0.238,0.614-0.147,1.315,0.238,1.861c0.373,0.523,0.976,0.831,1.618,0.831c0.021,0,0.041,0,0.07,0l0.551-0.021    c0.88-0.025,1.766-0.057,2.656-0.075c1.08-0.021,1.95-0.9,1.95-1.983v-6.765H129.406z" fill="#c0c0c0"/>
	</g>
</g>
<g>
</g>
<g>
</g>
<g>
</g>
<g>
</g>
<g>
</g>
<g>
</g>
<g>
</g>
<g>
</g>
<g>
</g>
<g>
</g>
<g>
</g>
<g>
</g>
<g>
</g>
<g>
</g>
<g>
</g>
</svg>
